# xmcd
#
# Track frame offsets:
#	150
#	22561
#	44499
#	60493
#	81309
#	98837
#	113985
#	132403
#	153961
#	174900
#	194225
#	211896
#
# Disc length: 3132 seconds
#
# Revision: 0
# Processed by: cddbd v1.5.2PL0 Copyright (c) Steve Scherf et al.
# Submitted via: EasyCDDAExtractor 10.0.2.1
#
DISCID=9c0c3a0c
DTITLE=Various Artist -  Emotional Traffic
DYEAR=2012
DGENRE=Country
TTITLE0=Tim McGraw - Halo
TTITLE1=Tim McGraw - Right Back Atcha, Babe
TTITLE2=Tim McGraw - One Part, Two Part
TTITLE3=Tim McGraw - I Will Not Fall Down
TTITLE4=Tim McGraw - The One
TTITLE5=Tim McGraw - Better ThanI Used To Be
TTITLE6=Tim McGraw - Touchdown Jesus
TTITLE7=Tim McGraw - The One That Got Away
TTITLE8=Tim McGraw - Felt Good On My Lips
TTITLE9=Own Hand - Hey, Now
TTITLE10=Tim McGraw - Only Human
TTITLE11=Tim McGraw - Die By My Own Hand
EXTD=
EXTT0=
EXTT1=
EXTT2=
EXTT3=
EXTT4=
EXTT5=
EXTT6=
EXTT7=
EXTT8=
EXTT9=
EXTT10=
EXTT11=
PLAYORDER=
